<?xml version="1.0" encoding="UTF-8" standalone="no"?>
<!-- Created with Inkscape (http://www.inkscape.org/) -->

<svg
   xmlns:dc="http://purl.org/dc/elements/1.1/"
   xmlns:cc="http://creativecommons.org/ns#"
   xmlns:rdf="http://www.w3.org/1999/02/22-rdf-syntax-ns#"
   xmlns:svg="http://www.w3.org/2000/svg"
   xmlns="http://www.w3.org/2000/svg"
   xmlns:sodipodi="http://sodipodi.sourceforge.net/DTD/sodipodi-0.dtd"
   xmlns:inkscape="http://www.inkscape.org/namespaces/inkscape"
   id="svg4038"
   version="1.1"
   inkscape:version="0.48.4 r9939"
   width="708.65967"
   height="708.65967"
   xml:space="preserve"
   sodipodi:docname="dsio_vect.pdf"><metadata
     id="metadata4044"><rdf:RDF><cc:Work
         rdf:about=""><dc:format>image/svg+xml</dc:format><dc:type
           rdf:resource="http://purl.org/dc/dcmitype/StillImage" /><dc:title></dc:title></cc:Work></rdf:RDF></metadata><defs
     id="defs4042" /><sodipodi:namedview
     pagecolor="#ffffff"
     bordercolor="#666666"
     borderopacity="1"
     objecttolerance="10"
     gridtolerance="10"
     guidetolerance="10"
     inkscape:pageopacity="0"
     inkscape:pageshadow="2"
     inkscape:window-width="1920"
     inkscape:window-height="1148"
     id="namedview4040"
     showgrid="false"
     fit-margin-top="0"
     fit-margin-left="0"
     fit-margin-right="0"
     fit-margin-bottom="0"
     inkscape:zoom="0.89904762"
     inkscape:cx="154.39123"
     inkscape:cy="372.5887"
     inkscape:window-x="0"
     inkscape:window-y="23"
     inkscape:window-maximized="1"
     inkscape:current-layer="g4046" /><g
     id="g4046"
     inkscape:groupmode="layer"
     inkscape:label="dsio_vect"
     transform="matrix(1.25,0,0,-1.25,-20.670162,854.32984)"><path
       d="M 300,683.46387 C 143.44727,683.46387 16.53613,556.55273 16.53613,400 16.53613,243.44824 143.44727,116.53613 300,116.53613 c 156.55176,0 283.46387,126.91211 283.46387,283.46387 0,156.55273 -126.91211,283.46387 -283.46387,283.46387 z"
       style="fill:#ed3c85;fill-opacity:1;fill-rule:nonzero;stroke:none"
       id="path4048"
       inkscape:connector-curvature="0" /><path
       d="M 34.07715,400 C 34.07715,253.36914 153.36963,134.07715 300,134.07715 446.63086,134.07715 565.92285,253.36914 565.92285,400 565.92285,546.63037 446.63086,665.92285 300,665.92285 153.36963,665.92285 34.07715,546.63037 34.07715,400 z"
       style="fill:#ffffff;fill-opacity:1;fill-rule:nonzero;stroke:none"
       id="path4050"
       inkscape:connector-curvature="0" /><path
       d="M 39.54443,400 C 39.54443,543.61523 156.38379,660.45557 300,660.45557 443.61621,660.45557 560.45508,543.61523 560.45508,400 560.45508,256.38379 443.61621,139.54492 300,139.54492 156.38379,139.54492 39.54443,256.38379 39.54443,400 z"
       style="fill:#ed3c85;fill-opacity:1;fill-rule:nonzero;stroke:none"
       id="path4052"
       inkscape:connector-curvature="0" /><path
       d="M 49.1123,400 C 49.1123,261.66016 161.66016,149.1123 300,149.1123 438.33984,149.1123 550.8877,261.66016 550.8877,400 550.8877,538.33984 438.33984,650.8877 300,650.8877 161.66016,650.8877 49.1123,538.33984 49.1123,400 z"
       style="fill:#ffffff;fill-opacity:1;fill-rule:nonzero;stroke:none"
       id="path4054"
       inkscape:connector-curvature="0" /><path
       d="M 54.57959,400 C 54.57959,535.32568 164.67432,645.42041 300,645.42041 435.3252,645.42041 545.4209,535.32568 545.4209,400 545.4209,264.6748 435.3252,154.5791 300,154.5791 164.67432,154.5791 54.57959,264.6748 54.57959,400 z"
       style="fill:#ed3c85;fill-opacity:1;fill-rule:nonzero;stroke:none"
       id="path4056"
       inkscape:connector-curvature="0" /><path
       d="m 227.52539,588.06982 c 3.2627,-5.71777 4.70166,-11.53271 4.31738,-17.44824 -0.34131,-5.34765 -1.52636,-9.75293 -3.55371,-13.21045 -2.13623,-3.58545 -5.49267,-6.68164 -10.06347,-9.29004 -3.56836,-2.03613 -8.54932,-4.08935 -14.94141,-6.16308 -1.62012,-0.56153 -3.07129,-1.20606 -4.35107,-1.93653 -3.0625,-1.74804 -5.29297,-4.05371 -6.69239,-6.91162 l -4.48633,1.16895 c 1.042,6.35058 -0.82519,13.71191 -5.60009,22.07959 l -3.99317,6.99707 c -5.92334,10.37891 -11.60302,16.0791 -17.03369,17.10303 l 0.45264,3.34814 c 3.57178,0.21924 7.80371,1.72754 12.6958,4.51953 2.01172,1.14795 4.37158,3.09815 7.07275,5.85254 2.70117,2.75537 4.85157,4.58838 6.45264,5.50195 2.6958,1.53809 5.19531,2.63135 7.49561,3.27784 6.40576,1.83593 12.61572,1.25683 18.6289,-1.73487 5.64649,-2.78027 10.18164,-7.16455 13.59961,-13.15381 m -16.4248,-12.00976 c -7.95948,13.94678 -14.1919,20.51221 -18.69825,19.69971 -1.14306,-0.22803 -2.10449,-0.56397 -2.88134,-1.00733 -2.51416,-1.43506 -3.34473,-4.12158 -2.48975,-8.06006 0.44092,-2.05175 1.59131,-4.97168 3.45166,-8.75927 1.59131,-3.21485 3.04102,-5.96387 4.34522,-8.25 0.86035,-1.50831 2.54345,-4.24756 5.04882,-8.21045 2.60889,-4.15088 4.61035,-6.85791 6,-8.125 2.93701,-2.81055 5.86768,-3.37793 8.79444,-1.7085 5.2124,2.9751 4.02295,11.11523 -3.5708,24.4209 z"
       style="fill:#ffffff;fill-opacity:1;fill-rule:nonzero;stroke:none"
       id="path4058"
       inkscape:connector-curvature="0" /><path
       d="m 305.31738,591.6875 c 0.292,-2.45752 0.0186,-5.0874 -0.81445,-7.88867 -2.75,-9.44531 -11.12842,-14.99903 -25.14014,-16.66211 -5.96142,-0.7085 -11.59619,-0.34229 -16.90966,1.09375 -7.01465,1.92236 -10.82276,5.42041 -11.42481,10.49121 -0.39111,3.29443 0.58398,6.0083 2.93115,8.14307 2.11377,1.84033 4.84326,2.96045 8.18946,3.35742 4.54785,0.53955 8.09961,-0.57715 10.65576,-3.34717 -1.52539,-0.55371 -2.77979,-1.604 -3.76221,-3.15186 -0.98193,-1.54785 -1.37695,-3.13134 -1.18457,-4.75244 0.29785,-2.50927 1.7417,-4.40527 4.3335,-5.68847 2.30566,-1.10596 4.78955,-1.49903 7.45703,-1.18262 2.66552,0.31641 4.88476,1.38818 6.65625,3.21533 1.77099,1.82617 2.49804,4.0752 2.18164,6.74317 -0.37207,3.1333 -2.59717,5.57421 -6.67334,7.31738 -2.61914,1.06543 -6.84717,2.06201 -12.68262,2.98681 -5.83447,0.92334 -9.50537,1.69385 -11.0083,2.31397 -3.23437,1.31201 -5.54834,2.73486 -6.94922,4.26465 -1.58887,1.77099 -2.57471,4.27783 -2.95898,7.52051 -0.64014,5.38427 0.86084,9.93798 4.50049,13.6582 3.40332,3.47607 7.85107,5.54346 13.34179,6.1958 2.45557,0.29102 5.78711,0.022 9.99561,-0.80225 4.20508,-0.82714 7.32763,-1.11816 9.36816,-0.87597 3.03272,0.35986 5.72559,1.79297 8.08057,4.2998 0.68164,-1.2998 1.1333,-2.86426 1.3501,-4.69336 0.36621,-3.08398 -0.15039,-5.87402 -1.55079,-8.37304 -1.52441,-2.78028 -3.7788,-4.3462 -6.75732,-4.69971 -2.77051,-0.3291 -5.41406,0.49707 -7.92871,2.47851 -1.91504,1.83985 -3.85889,3.70264 -5.83252,5.59034 -2.25537,2.01171 -4.50537,2.88427 -6.75293,2.61816 -1.25586,-0.1499 -2.34326,-0.80957 -3.26611,-1.97949 -0.92188,-1.17041 -1.30323,-2.40821 -1.14844,-3.71387 0.27344,-2.2998 3.21484,-4.31103 8.82861,-6.02978 0.60645,-0.19336 5.17334,-1.16163 13.70606,-2.90625 6.14062,-1.28809 10.75586,-2.85938 13.83886,-4.71827 4.33887,-2.61474 6.78516,-6.22216 7.33008,-10.82275 z"
       style="fill:#ffffff;fill-opacity:1;fill-rule:nonzero;stroke:none"
       id="path4060"
       inkscape:connector-curvature="0" /><path
       d="m 349.15234,566.49463 -2.12402,-3.44727 c -4.09961,2.62744 -8.67871,4.43994 -13.74023,5.4336 -4.75586,0.93261 -9.53516,1.03808 -14.34375,0.31787 l -1.76368,3.72705 c 3.78223,1.77734 6.75391,5.16504 8.91309,10.16016 1.21875,2.92724 2.42578,7.43945 3.62109,13.53613 l 1.83985,9.37744 c 1.56933,8.00488 0.39258,13.89697 -3.53321,17.67285 l 2.26465,3.33838 c 4.35352,-2.14355 8.41602,-3.58398 12.18848,-4.32422 2.73828,-0.53711 7.77148,-0.85449 15.10254,-0.95019 l 0.92969,-3.88477 c -2.73243,-1.34326 -4.84571,-3.50342 -6.34375,-6.48193 -0.97364,-1.95606 -1.92188,-4.87989 -2.84473,-8.77637 -1.00781,-4.30957 -1.49023,-6.36182 -1.4502,-6.15479 -0.93261,-4.75244 -1.61425,-8.91162 -2.04492,-12.47314 -0.47265,-3.77197 -0.54883,-6.7627 -0.23242,-8.96924 0.39453,-3.18994 1.58203,-5.88965 3.56152,-8.10156 z"
       style="fill:#ffffff;fill-opacity:1;fill-rule:nonzero;stroke:none"
       id="path4062"
       inkscape:connector-curvature="0" /><path
       d="m 426.60645,557.05713 c -3.35547,-5.78467 -7.77051,-10.04053 -13.2461,-12.76856 -5.69433,-2.78466 -11.72949,-3.48535 -18.10644,-2.09912 -4.09571,0.91455 -7.44141,2.12598 -10.03614,3.63037 -7.69824,4.46338 -12.67089,10.77051 -14.91308,18.91797 -2.24317,8.14698 -1.14746,16.04541 3.29101,23.69776 4.03907,6.96728 10.07715,11.34716 18.11426,13.13769 7.84863,1.77783 15.2793,0.63379 22.29395,-3.43408 7.42382,-4.30371 12.41601,-10.33398 14.98047,-18.08887 2.63769,-8.04199 1.8457,-15.70752 -2.37793,-22.99316 m -19.43946,7.25342 c 2.34961,4.05224 4.30567,8.21435 5.86914,12.48193 2.31836,6.20215 2.83789,10.61621 1.5625,13.24268 -0.83886,1.70459 -1.96191,2.96435 -3.375,3.78369 -2.77832,1.61181 -5.64746,1.3872 -8.60449,-0.66992 -1.75391,-1.23731 -3.82812,-3.50489 -6.22461,-6.8003 -2.39844,-3.29394 -4.23047,-6.03613 -5.49609,-8.22119 -2.98535,-5.14844 -5.07129,-9.84228 -6.25293,-14.08545 -1.90528,-6.74609 -1.0791,-11.1499 2.47168,-13.20996 6.10351,-3.53857 12.78613,0.95215 20.0498,13.47852 z"
       style="fill:#ffffff;fill-opacity:1;fill-rule:nonzero;stroke:none"
       id="path4064"
       inkscape:connector-curvature="0" /><path
       d="m 128.99707,532.74072 21.47168,-14.50683 c 1.59521,-1.05518 2.82861,-1.51123 3.70264,-1.36866 0.79638,0.12793 1.60791,0.7544 2.43554,1.88233 l 0.77246,1.04346 0.84522,-0.57129 -8.48926,-12.56543 c -2.18457,-3.23438 -3.97021,-5.49659 -5.35058,-6.78614 -2.88233,-2.7207 -6.12256,-4.44384 -9.71973,-5.16894 -4.70703,-0.95361 -9.34668,0.11328 -13.91943,3.20264 -3.20118,2.16259 -5.51758,4.8291 -6.95069,7.99707 -1.69092,3.74218 -1.84765,7.78271 -0.47119,12.11962 0.58447,1.8501 1.28955,3.48584 2.11621,4.90479 0.70654,1.21191 1.77295,2.87061 3.1958,4.97607 l 8.38135,12.40528 0.84521,-0.57129 -0.67968,-1.10596 c -0.7378,-1.18848 -1.0166,-2.17529 -0.83741,-2.96191 0.19239,-0.86377 1.07764,-1.83789 2.65186,-2.92481 m 20.50879,-21.00439 -26.13135,17.65576 c -1.60254,-1.31201 -2.85547,-2.6377 -3.76025,-3.97656 -2.22998,-3.30127 -3.15088,-6.73584 -2.76172,-10.30225 0.51709,-4.69385 3.125,-8.62793 7.82275,-11.80176 3.87403,-2.6167 7.89649,-3.65039 12.06836,-3.10058 2.37891,0.2998 4.38428,1.01709 6.01856,2.15136 1.57177,1.11084 3.06738,2.71534 4.48584,4.81543 0.91601,1.3545 1.66699,2.87403 2.25781,4.5586 z"
       style="fill:#ffffff;fill-opacity:1;fill-rule:nonzero;stroke:none"
       id="path4066"
       inkscape:connector-curvature="0" /><path
       d="m 114.979,484.32227 -11.11279,4.75146 c -1.22021,0.50244 -2.07959,0.79981 -2.57764,0.8916 -0.48144,0.0859 -0.89453,-0.0278 -1.23779,-0.34277 -0.34424,-0.31592 -0.7041,-0.91358 -1.08154,-1.79541 l -2.67481,-6.25733 c -1.2915,-2.97216 -1.60107,-5.49218 -0.93115,-7.5625 0.47754,-1.44531 1.6416,-3.10595 3.49121,-4.97802 l -0.72217,-0.71192 -7.44824,6.6958 11.4751,26.8418 0.93799,-0.40039 -0.45801,-1.21484 c -0.49951,-1.30664 -0.58691,-2.32862 -0.26318,-3.06739 0.35302,-0.81152 1.40625,-1.60107 3.15722,-2.36963 l 23.82715,-10.18652 c 1.76611,-0.73437 3.06348,-0.94971 3.89453,-0.64453 0.7583,0.27588 1.43653,1.04541 2.03662,2.30908 l 0.56055,1.17041 0.93848,-0.40088 -11.24805,-26.30957 -8.05518,2.81348 0.28956,0.95703 c 2.16162,-0.62402 3.82519,-0.72363 4.98877,-0.2998 0.97802,0.36377 1.85058,1.11328 2.61621,2.24804 0.35058,0.49268 0.88086,1.56836 1.5913,3.22852 l 3.43653,8.03808 -13.05713,5.58204 -3.75195,-8.77588 c -0.50538,-1.22803 -0.66407,-2.18311 -0.47559,-2.86524 0.30029,-1.06982 1.10938,-1.93701 2.42334,-2.59961 0.37402,-0.20019 0.88184,-0.4375 1.52295,-0.71191 l -0.40234,-0.94141 -12.6377,5.40235 0.40283,0.94238 c 1.63086,-0.69775 2.81787,-1.0249 3.56006,-0.98096 1.3916,0.10694 2.46924,1.03125 3.23291,2.76953 l 3.75195,8.77491 z"
       style="fill:#ffffff;fill-opacity:1;fill-rule:nonzero;stroke:none"
       id="path4068"
       inkscape:connector-curvature="0" /><path
       d="m 83.46484,449.78467 0.19873,1.08496 12.54834,-2.29736 -0.2041,-1.1128 c -2.71093,0.10547 -4.90967,-0.20263 -6.59277,-0.92383 -1.49902,-0.62255 -2.75684,-1.54248 -3.77393,-2.75927 -1.01757,-1.21631 -1.66064,-2.55713 -1.92871,-4.02295 -0.30517,-1.66455 -0.07861,-3.18262 0.6792,-4.55664 0.91406,-1.64307 2.28369,-2.63379 4.11084,-2.96826 1.62744,-0.29786 3.32715,0.14794 5.09717,1.33935 1.32227,0.89795 2.47119,1.91309 3.44531,3.0459 l 3.29151,3.88672 c 1.71289,2.00683 3.39013,3.51367 5.03418,4.52148 1.76709,1.08057 3.81689,1.40528 6.15087,0.97852 2.94825,-0.53955 5.15625,-1.95361 6.62598,-4.24219 1.30225,-2.07129 1.69483,-4.52685 1.17432,-7.36719 -0.24463,-1.33691 -0.73828,-2.71435 -1.47754,-4.13134 -0.12256,-0.25831 -0.54639,-1.05957 -1.27246,-2.40381 -0.22657,-0.4253 -0.36914,-0.8003 -0.42871,-1.12549 -0.12256,-0.6709 0.22998,-1.27734 1.05615,-1.82227 l -0.2085,-1.13867 -11.80127,2.16113 0.1836,1.00391 c 3.02636,0.36035 5.17724,0.79688 6.45215,1.30957 2.74951,1.09961 4.38427,3.05859 4.89941,5.87402 0.28076,1.53418 0.11963,2.89893 -0.48486,4.0918 -0.74366,1.45996 -1.90088,2.33447 -3.47364,2.62158 -1.42968,0.26221 -2.81494,-0.10058 -4.15478,-1.08789 -1.3125,-0.93457 -2.44629,-1.97754 -3.40479,-3.12939 l -3.25879,-3.85694 c -1.71533,-2.01904 -3.49902,-3.63525 -5.34668,-4.84668 -2.2124,-1.46142 -4.6206,-1.95556 -7.22558,-1.47705 -3.14795,0.57618 -5.48584,2.15479 -7.01367,4.73389 -1.36524,2.34326 -1.76807,5.04395 -1.20899,8.10254 0.26221,1.4292 0.6499,2.62988 1.16309,3.60156 l 1.54101,2.91504 c 0.43311,0.8374 0.6958,1.5083 0.78858,2.01465 0.15283,0.83301 -0.2417,1.49414 -1.18067,1.9834 z"
       style="fill:#ffffff;fill-opacity:1;fill-rule:nonzero;stroke:none"
       id="path4070"
       inkscape:connector-curvature="0" /><path
       d="m 127.84912,332.39648 c -0.24365,1.87305 -1.0415,4.64161 -2.39648,8.30176 l -4.95118,13.37403 -1.71435,11.51855 -1.00928,-0.15039 0.13184,-1.2627 c 0.15478,-1.4082 -0.019,-2.42968 -0.52002,-3.0625 -0.54736,-0.69531 -1.76611,-1.19238 -3.65479,-1.49218 l -16.75781,-2.49512 c -1.82959,-0.27051 -3.3335,-0.37305 -4.50928,-0.30664 -2.49756,0.11426 -4.49853,0.92676 -6,2.44238 -1.84961,1.85449 -2.98291,4.17969 -3.39843,6.97363 -0.23975,1.6084 -0.15967,3.18165 0.2417,4.7168 0.38916,1.47852 1.06982,2.68945 2.03955,3.63672 0.79052,0.77246 1.71923,1.36719 2.78564,1.78809 1.06641,0.41992 2.57813,0.77636 4.53272,1.06738 l 18.01367,2.68164 c 1.89502,0.26465 3.20459,0.14258 3.93164,-0.36426 0.66308,-0.45801 1.12597,-1.38281 1.38867,-2.77637 l 0.24121,-1.24707 1.00977,0.14942 -2.18116,14.64941 0.23877,0.007 1.01661,30.9541 -9.1167,0.85254 -0.0903,-1.07324 c 1.09864,-0.14551 1.93213,-0.28418 2.50049,-0.41309 1.36963,-0.33984 2.41846,-1.20117 3.14746,-2.58887 0.4336,-0.82421 0.62647,-2.20898 0.58203,-4.1582 l -0.16601,-5.0459 -29.03906,0.9541 c -1.91114,0.0811 -3.17871,0.43457 -3.80176,1.0625 -0.56983,0.57227 -0.85889,1.57422 -0.8667,3.01172 l -0.01465,1.24121 -1.01953,0.0342 -0.5332,-16.2334 1.02002,-0.0322 0.09619,1.2373 c 0.10205,1.4336 0.45605,2.41602 1.06201,2.94629 0.66308,0.58692 1.95166,0.85645 3.86279,0.8125 l 29.03906,-0.9541 -0.16552,-5.04492 c -0.0469,-1.4336 -0.1836,-2.4961 -0.40821,-3.18848 -0.32617,-0.94726 -0.88623,-1.7373 -1.68115,-2.37304 -0.81494,-0.67383 -2.34717,-1.06348 -4.59619,-1.17481 l 0.0195,-1.07617 7.83008,0.21484 c 0.15137,-1.38965 -0.023,-2.39941 -0.52344,-3.03125 -0.54785,-0.69726 -1.76513,-1.19238 -3.65478,-1.49316 L 97.0923,384.09297 c -3.60157,-0.53613 -5.75489,-0.87402 -6.4585,-1.0166 -2.81055,-0.60547 -4.96924,-1.53027 -6.47461,-2.77637 -3.57129,-2.98632 -4.91748,-7.43457 -4.0376,-13.3457 0.63574,-4.27246 2.02637,-7.42969 4.17041,-9.47168 1.99561,-1.91504 4.41553,-2.99609 7.25879,-3.24121 1.48779,-0.13183 3.43262,-0.0205 5.8335,0.33692 l 16.73095,2.49121 c 1.89454,0.26464 3.20459,0.14257 3.93116,-0.36231 0.55322,-0.38281 0.95752,-1.10351 1.23047,-2.12402 l -0.0454,-0.0166 0.20507,-0.63868 0.24073,-1.24609 0.12011,0.0186 c 0.25,-1.02149 0.2417,-1.84668 -0.0581,-2.44727 -0.39356,-0.79199 -1.4834,-1.5293 -3.27051,-2.20996 L 92.1675,339.04712 c -1.80029,-0.64649 -3.10791,-0.79786 -3.92187,-0.4502 -0.74317,0.31152 -1.38331,1.11328 -1.91944,2.40527 l -0.50244,1.19727 -0.95703,-0.35449 5.19726,-14.03907 c 0.88233,-2.38281 1.6084,-4.21582 2.18165,-5.49609 0.67187,-1.49902 1.59033,-3.02539 2.75341,-4.5791 2.72217,-3.64453 6.09766,-5.87305 10.12305,-6.67969 3.41064,-0.68066 6.92676,-0.35254 10.54981,0.98828 5.17529,1.91602 8.74609,5.06543 10.71435,9.44727 1.50635,3.34472 1.99463,6.98242 1.46289,10.91015 m -4.73096,-6.01074 c -1.98437,-3.70996 -5.16845,-6.37695 -9.55224,-8 -5.31738,-1.96972 -10.03369,-1.79492 -14.14942,0.51953 -3.12597,1.76075 -5.37939,4.5127 -6.76269,8.24707 -0.56104,1.51661 -0.90918,3.30664 -1.04151,5.37403 l 29.57666,10.94726 c 1.02393,-1.45996 1.82081,-2.958 2.38917,-4.49023 0.8789,-2.37695 1.31201,-4.52832 1.29833,-6.45215 -0.0303,-1.98926 -0.61621,-4.03809 -1.7583,-6.14551 z"
       style="fill:#ffffff;fill-opacity:1;fill-rule:nonzero;stroke:none"
       id="path4072"
       inkscape:connector-curvature="0" /><path
       d="m 123.35205,299.44824 -10.33838,-6.25683 c -1.12012,-0.69922 -1.86328,-1.22364 -2.22851,-1.5752 -0.35059,-0.3418 -0.49805,-0.74219 -0.44287,-1.20508 0.0557,-0.46386 0.33154,-1.10449 0.82812,-1.9248 l 3.52295,-5.82324 c 1.66211,-2.78223 3.5293,-4.50196 5.60107,-5.16602 1.45264,-0.4541 3.48047,-0.47656 6.08008,-0.0645 l 0.15723,-1.00293 -9.7832,-2.14746 -15.11524,24.97363 0.87354,0.52832 0.71875,-1.08008 c 0.7705,-1.16699 1.5498,-1.83496 2.33935,-2.00097 0.86475,-0.1875 2.12012,0.20898 3.76611,1.18261 L 131.5,311.30273 c 1.62646,1.00684 2.55762,1.93457 2.79395,2.78809 0.21875,0.77734 -0.0112,1.77734 -0.68799,3.00098 l -0.62354,1.13867 0.87256,0.52832 14.81592,-24.47852 -6.98389,-4.90527 -0.6084,0.79297 c 1.76758,1.39355 2.81787,2.68555 3.15284,3.87988 0.27392,1.00586 0.17382,2.15235 -0.30079,3.43555 -0.1958,0.57226 -0.76025,1.63086 -1.69482,3.1748 l -4.52686,7.48047 -12.14794,-7.35449 4.94189,-8.16406 c 0.70215,-1.12696 1.38574,-1.8125 2.04932,-2.0586 1.04492,-0.37988 2.22119,-0.22754 3.52636,0.45508 0.37989,0.18555 0.86914,0.45996 1.46534,0.82129 l 0.53027,-0.875 -11.75781,-7.11816 -0.53028,0.87597 c 1.51709,0.91797 2.47461,1.69336 2.87207,2.32227 0.72461,1.19238 0.60254,2.60547 -0.36425,4.24023 l -4.9419,8.16504 z"
       style="fill:#ffffff;fill-opacity:1;fill-rule:nonzero;stroke:none"
       id="path4074"
       inkscape:connector-curvature="0" /><path
       d="m 142.27148,270.14453 -8.81103,-7.71875 c -1.44092,-1.28515 -2.20264,-2.36914 -2.28613,-3.25 -0.0913,-0.78906 0.31347,-1.74023 1.21777,-2.85547 l 0.68848,-0.82715 -0.78907,-0.6914 -10.57421,12.07031 0.76806,0.67188 0.896,-0.93848 c 0.9624,-1.01563 1.8457,-1.53613 2.65234,-1.56348 0.88428,-0.0332 2.05176,0.57422 3.50293,1.82129 l 19.4917,17.07422 c 1.42627,1.27441 2.18164,2.35156 2.26563,3.23242 0.0796,0.80274 -0.32032,1.74707 -1.2002,2.83496 l -0.8125,1.0127 0.76758,0.6709 10.32666,-11.78711 c 2.01709,-2.30274 3.32324,-4.08985 3.92041,-5.35938 0.97265,-2.08984 1.21338,-4.1709 0.72314,-6.24219 -0.44433,-1.95898 -1.42187,-3.60058 -2.93457,-4.92578 -2.13769,-1.87304 -4.63281,-2.63574 -7.48779,-2.29199 -1.69873,0.20606 -3.6084,0.99805 -5.72559,2.38086 l -2.88818,-14.07715 c -0.59863,-3.04687 -0.84668,-5.11523 -0.74658,-6.2041 0.0493,-1.06055 0.50488,-2.09375 1.36621,-3.10449 l 0.5293,-0.60352 -0.8003,-0.70019 -6.52392,7.44726 4.39551,21.71875 -1.93165,2.20508 m 12.875,11.27735 -11.33252,-9.92676 c 0.26563,-0.30274 0.46485,-0.53125 0.59913,-0.68457 1.82763,-2.08692 3.8042,-3.50489 5.93066,-4.25684 2.46777,-0.89258 4.80908,-0.36816 7.02246,1.57031 0.92676,0.81153 1.63184,1.76465 2.11524,2.86036 0.48339,1.0957 0.68261,2.17968 0.59716,3.2539 -0.14209,1.78125 -0.88525,3.43848 -2.22802,4.97266 -0.65479,0.74707 -1.55616,1.48437 -2.70411,2.21094 z"
       style="fill:#ffffff;fill-opacity:1;fill-rule:nonzero;stroke:none"
       id="path4076"
       inkscape:connector-curvature="0" /><path
       d="m 169.0791,244.56055 -7.56689,-9.42285 c -0.81299,-1.03907 -1.33155,-1.78711 -1.55274,-2.24219 -0.21289,-0.44043 -0.21484,-0.86719 -0.003,-1.28516 0.21094,-0.41504 0.68995,-0.92285 1.4375,-1.52344 l 5.30616,-4.26074 c 2.51416,-2.04394 4.85888,-3.02051 7.03222,-2.93262 1.521,0.0693 3.43262,0.74415 5.73438,2.02149 l 0.49121,-0.8877 -8.4541,-5.37011 -22.76074,18.27832 0.63818,0.7959 1.04639,-0.76856 c 1.12402,-0.83301 2.08447,-1.19238 2.88379,-1.0791 0.87597,0.12109 1.92041,0.92383 3.13232,2.40332 l 16.2251,20.2041 c 1.1831,1.50195 1.73974,2.69434 1.66943,3.57715 -0.062,0.80469 -0.62012,1.66504 -1.67529,2.58301 l -0.97656,0.85449 0.63964,0.79687 22.30909,-17.91699 -4.87891,-7 -0.84326,0.53516 c 1.18213,1.91504 1.72607,3.49023 1.63183,4.72558 -0.0869,1.03907 -0.57422,2.08204 -1.46045,3.125 -0.38037,0.46973 -1.27294,1.26954 -2.68164,2.40137 l -6.81543,5.47363 -8.89111,-11.07128 7.44092,-5.97754 c 1.04736,-0.81739 1.92383,-1.22657 2.63135,-1.22852 1.1123,0.002 2.16504,0.54688 3.15625,1.63477 0.29345,0.30468 0.65918,0.72949 1.0957,1.27441 l 0.79883,-0.64062 -8.60645,-10.71778 -0.79834,0.6416 c 1.11084,1.38379 1.74561,2.43848 1.90332,3.16602 0.27149,1.36816 -0.32861,2.6543 -1.79638,3.8584 l -7.4419,5.97461 z"
       style="fill:#ffffff;fill-opacity:1;fill-rule:nonzero;stroke:none"
       id="path4078"
       inkscape:connector-curvature="0" /><path
       d="m 261.42773,213.34961 c -1.81543,3.19043 -4.46679,5.72656 -7.95312,7.6123 -1.65674,0.90723 -4.36426,1.89454 -8.12061,2.95704 l -14.08252,3.98339 -10.99462,5.81543 -0.47657,-0.90332 1.11963,-0.65429 c 1.21045,-0.70118 1.9209,-1.44239 2.1333,-2.22071 0.23584,-0.85254 -0.0855,-2.12793 -0.96338,-3.82715 l -9.41894,-17.80664 -7.50879,33.40723 -9.87061,5.2207 -0.47705,-0.90234 c 1.3794,-0.77246 2.33643,-1.58008 2.86914,-2.42187 0.4419,-0.77637 0.9917,-2.27344 1.64893,-4.49219 l -12.51611,-23.66211 c -0.91114,-1.68262 -1.78467,-2.66699 -2.62256,-2.9502 -0.76221,-0.26269 -1.77393,-0.0918 -3.03516,0.51367 l -1.17187,0.55762 -0.47754,-0.90332 11.60351,-6.13769 0.47754,0.90332 -1.09619,0.64257 c -1.22705,0.71094 -1.9458,1.45508 -2.15723,2.23243 -0.23681,0.85156 0.0845,2.1289 0.96338,3.82812 l 10.9541,20.70996 8.66944,-37.73535 0.78662,-0.41797 14.86328,28.09961 c 0.91016,1.68262 1.78467,2.66602 2.62207,2.9502 0.7627,0.26367 1.78174,0.0879 3.05957,-0.52637 l 0.24121,-0.11426 -0.0122,-0.0439 0.3457,-0.11328 0.57373,-0.27247 0.0366,0.0703 0.27637,-0.0908 c 1.33008,-0.4336 2.17968,-1.00782 2.55078,-1.72461 0.40918,-0.78516 0.36181,-2.09961 -0.14014,-3.94434 l -7.05273,-24.93555 c -0.53907,-1.83398 -1.18701,-2.98046 -1.94629,-3.43457 -0.69092,-0.41503 -1.71631,-0.45898 -3.07569,-0.13183 l -1.26318,0.29883 -0.27783,-0.98243 14.40625,-4.07421 c 2.44531,-0.69043 4.354,-1.18457 5.72607,-1.47559 1.60694,-0.34082 3.38086,-0.49707 5.32129,-0.47266 4.54981,0.0498 8.3374,1.46387 11.36231,4.24219 2.56006,2.35352 4.3667,5.38867 5.41797,9.10547 1.50244,5.30957 1.06201,10.05078 -1.31788,14.22168 m -5.05029,-12.18457 c -1.54297,-5.45508 -4.4624,-9.16309 -8.75781,-11.125 -3.26563,-1.48731 -6.81543,-1.6875 -10.64893,-0.60254 -1.55468,0.43945 -3.20654,1.21289 -4.9541,2.32422 l 8.58301,30.34766 c 1.78467,-0.0352 3.46289,-0.27247 5.03613,-0.7168 2.43848,-0.69043 4.43067,-1.60742 5.97852,-2.75293 1.58887,-1.19531 2.89844,-2.87695 3.92773,-5.04102 1.82862,-3.79004 2.10791,-7.93457 0.83545,-12.43359 z"
       style="fill:#ffffff;fill-opacity:1;fill-rule:nonzero;stroke:none"
       id="path4080"
       inkscape:connector-curvature="0" /><path
       d="m 277.4541,197.92383 -1.0332,-12.04102 c -0.0947,-1.3164 -0.1084,-2.22754 -0.0396,-2.72851 0.0693,-0.48535 0.30664,-0.84082 0.71386,-1.06836 0.40625,-0.22852 1.08741,-0.38281 2.04249,-0.46387 l 6.78076,-0.58203 c 3.22656,-0.2959 5.71728,0.19922 7.47363,1.4834 1.22363,0.90625 2.43555,2.53125 3.6333,4.875 l 0.9043,-0.46387 -4.02783,-9.16992 -29.08545,2.49414 0.0869,1.0166 1.29688,-0.0557 c 1.39746,-0.0645 2.3955,0.17187 2.99511,0.71191 0.66065,0.58789 1.08057,1.83496 1.26319,3.73926 l 2.21386,25.81836 c 0.14502,1.90722 -0.0566,3.20703 -0.60742,3.90039 -0.49902,0.63379 -1.44189,1.03906 -2.82959,1.21191 l -1.2876,0.16602 0.0874,1.0166 28.50781,-2.44531 -0.15039,-8.53028 -0.99854,-0.0264 c -0.085,2.24804 -0.51123,3.85937 -1.27783,4.83203 -0.65185,0.81543 -1.63721,1.40918 -2.9541,1.78222 -0.57813,0.17872 -1.76514,0.34571 -3.56445,0.5 l -8.70996,0.7461 -1.2129,-14.14649 9.50831,-0.8164 c 1.3247,-0.0947 2.28173,0.0527 2.8706,0.44433 0.92236,0.6211 1.49268,1.66211 1.71045,3.11621 0.0723,0.41895 0.13916,0.97559 0.19922,1.66993 l 1.02002,-0.0879 -1.17432,-13.69336 -1.02051,0.0869 c 0.15137,1.76758 0.0903,2.99707 -0.18359,3.68848 -0.53711,1.28808 -1.75195,2.02148 -3.64209,2.20312 l -9.50879,0.81641 z"
       style="fill:#ffffff;fill-opacity:1;fill-rule:nonzero;stroke:none"
       id="path4082"
       inkscape:connector-curvature="0" /><path
       d="m 305.94043,177.91406 -1.10059,-0.0772 -0.8916,12.72657 1.12598,0.0781 c 0.57324,-2.65332 1.41797,-4.70508 2.53418,-6.15722 0.97656,-1.29688 2.18164,-2.28614 3.6123,-2.96973 1.42969,-0.6836 2.88868,-0.97266 4.37598,-0.86719 1.6875,0.11914 3.10059,0.71484 4.24316,1.78906 1.36621,1.29493 1.98438,2.86719 1.85352,4.72168 -0.11523,1.64844 -0.96875,3.18457 -2.5625,4.60352 -1.19922,1.05762 -2.46875,1.91699 -3.80664,2.58008 l -4.58301,2.22265 c -2.37109,1.16016 -4.24609,2.40918 -5.63086,3.75293 -1.48535,1.44239 -2.31152,3.34766 -2.47656,5.71485 -0.20996,2.98925 0.61133,5.47851 2.46191,7.47168 1.68164,1.77539 3.96289,2.7666 6.84375,2.96777 1.35645,0.0957 2.81348,-0.041 4.37012,-0.4043 0.27832,-0.0537 1.16113,-0.26562 2.64453,-0.63574 0.46778,-0.1123 0.86719,-0.1582 1.19727,-0.13379 0.67968,0.0469 1.17871,0.53809 1.50097,1.47461 l 1.15528,0.082 0.83984,-11.96972 -1.01855,-0.0713 c -1.10059,2.84179 -2.05762,4.81738 -2.87012,5.9248 -1.75195,2.39063 -4.05371,3.48633 -6.90918,3.28516 -1.55566,-0.1084 -2.83691,-0.60449 -3.8418,-1.48731 -1.22949,-1.08203 -1.78906,-2.41992 -1.67773,-4.01465 0.10156,-1.45117 0.79883,-2.70312 2.08691,-3.7539 1.23145,-1.03906 2.52344,-1.87793 3.87793,-2.52051 l 4.54492,-2.19824 c 2.38379,-1.16016 4.38965,-2.48535 6.02344,-3.97461 1.9668,-1.7793 3.04199,-3.99024 3.22754,-6.63086 0.22461,-3.19336 -0.72461,-5.84961 -2.8418,-7.9707 -1.93164,-1.9043 -4.44824,-2.9668 -7.5498,-3.1836 -1.44824,-0.10254 -2.70801,-0.0254 -3.77637,0.23047 l -3.20605,0.76856 c -0.91895,0.21093 -1.63477,0.29882 -2.14746,0.26367 -0.84571,-0.0596 -1.3877,-0.60645 -1.62891,-1.6377 z"
       style="fill:#ffffff;fill-opacity:1;fill-rule:nonzero;stroke:none"
       id="path4084"
       inkscape:connector-curvature="0" /><path
       d="m 396.47363,220.00781 c -2.15722,5.07813 -5.4707,8.49903 -9.93945,10.25684 -3.41309,1.34765 -7.06836,1.66504 -10.96777,0.94824 -1.8584,-0.33008 -4.58789,-1.25781 -8.18067,-2.7832 l -13.65527,-5.79981 -0.21289,0.83106 -15.73145,-4.03809 0.25196,-0.98828 1.27148,0.26856 c 1.36621,0.29394 2.3916,0.2246 3.07129,-0.20801 0.74902,-0.47364 1.36816,-1.63282 1.86328,-3.48145 l 6.44141,-25.09863 c 0.45605,-1.85645 0.47265,-3.17383 0.0449,-3.94824 -0.38867,-0.70606 -1.25195,-1.25977 -2.59277,-1.66114 l -1.24219,-0.375 0.2539,-0.98925 15.73047,4.03711 -0.2539,0.98925 -1.24219,-0.26172 c -1.38672,-0.29882 -2.41895,-0.23242 -3.09961,0.2002 -0.74805,0.47266 -1.36914,1.63379 -1.86133,3.48145 l -6.44238,25.09863 c -0.45899,1.8584 -0.47266,3.17285 -0.044,3.94726 0.38672,0.70704 1.25879,1.26368 2.61719,1.66797 l 0.92481,0.28125 0.34863,-0.82031 1.21582,0.45605 c 1.30762,0.4961 2.3291,0.57911 3.06836,0.25391 0.80957,-0.35449 1.59668,-1.40918 2.36133,-3.16113 l 10.12988,-23.85254 c 0.72949,-1.76758 0.94238,-3.06641 0.63476,-3.89649 -0.27734,-0.75781 -1.0498,-1.43359 -2.31445,-2.03125 l -1.17187,-0.55761 0.39941,-0.93946 13.7793,5.85157 c 2.33886,0.99414 4.13574,1.80566 5.38769,2.43847 1.46582,0.74121 2.94727,1.7295 4.44336,2.96485 3.51367,2.8916 5.58008,6.36718 6.19727,10.42676 0.51855,3.43847 0.0264,6.93652 -1.48438,10.49218 m -6.09375,-16.56054 c -1.6123,-3.20606 -4.2539,-5.58497 -7.91992,-7.14454 -1.4873,-0.63085 -3.25976,-1.0625 -5.31738,-1.29199 l -12.32813,29.02832 c 1.41114,1.09278 2.86914,1.95899 4.37403,2.59766 2.33203,0.99023 4.46093,1.52441 6.38379,1.60156 1.9873,0.0635 4.06152,-0.42578 6.2207,-1.46777 3.7998,-1.80762 6.61426,-4.86231 8.44141,-9.16504 2.21582,-5.21875 2.26464,-9.93848 0.1455,-14.1582 z"
       style="fill:#ffffff;fill-opacity:1;fill-rule:nonzero;stroke:none"
       id="path4086"
       inkscape:connector-curvature="0" /><path
       d="m 409.34961,227.38379 6.58008,-9.68848 c 1.09961,-1.58886 2.08105,-2.47851 2.94629,-2.66797 0.7705,-0.1875 1.7666,0.0967 2.9834,0.85743 l 0.90527,0.583 0.58984,-0.86816 -13.27539,-9.01465 -0.57422,0.84473 1.042,0.77344 c 1.12597,0.83105 1.75,1.64355 1.87695,2.4414 0.14062,0.87305 -0.31934,2.10547 -1.37793,3.7002 l -14.55664,21.43652 c -1.09082,1.57129 -2.06543,2.45313 -2.93067,2.64551 -0.78808,0.17676 -1.77343,-0.10449 -2.95996,-0.84473 l -1.10547,-0.68262 -0.57226,0.84473 12.96387,8.80371 c 2.5332,1.71973 4.46777,2.79688 5.79882,3.23438 2.19336,0.70996 4.28809,0.69336 6.28516,-0.0469 1.88965,-0.68066 3.40039,-1.85351 4.52832,-3.5166 1.59668,-2.35059 2.04785,-4.9209 1.35645,-7.71289 -0.41114,-1.66113 -1.43164,-3.45801 -3.06348,-5.39063 l 13.61523,-4.59179 c 2.95118,-0.9668 4.97559,-1.4668 6.06739,-1.5 1.05664,-0.0811 2.13964,0.24414 3.24902,0.97558 l 0.66309,0.44922 0.59765,-0.87793 -8.1914,-5.56347 -21.01661,7.02539 -2.4248,-1.64844 m -9.61426,14.16113 8.46192,-12.46387 c 0.33496,0.22657 0.58496,0.39747 0.75293,0.51075 2.29589,1.55957 3.94531,3.34668 4.9541,5.36425 1.18652,2.33985 0.95312,4.72852 -0.7002,7.16211 -0.6914,1.01856 -1.55078,1.83594 -2.5791,2.4502 -1.02734,0.61426 -2.0791,0.94531 -3.15625,0.99023 -1.78418,0.0781 -3.52148,-0.45703 -5.20898,-1.60156 -0.82032,-0.55762 -1.66211,-1.3623 -2.52442,-2.41211 z"
       style="fill:#ffffff;fill-opacity:1;fill-rule:nonzero;stroke:none"
       id="path4088"
       inkscape:connector-curvature="0" /><path
       d="m 451.625,256.375 -8.34961,-8.87988 2.43262,-8.72364 c 0.22851,-0.82128 0.54394,-1.41992 0.9414,-1.79492 0.44043,-0.41308 0.96289,-0.57617 1.56934,-0.48828 0.65723,0.0879 1.28906,0.45215 1.89355,1.09473 l 0.82911,0.88281 0.88574,-0.83203 -8.58301,-9.12793 -0.8291,0.7793 0.86914,0.92285 c 0.55273,0.58887 0.8916,1.45215 1.01953,2.59375 0.14649,0.71777 -0.0869,2.16113 -0.70215,4.3291 l -8.5791,29.47559 c -0.52539,1.85546 -0.91699,2.90429 -1.1709,3.14453 -0.65722,0.61718 -1.58691,0.28711 -2.78808,-0.99121 l -0.69434,-0.73829 -0.88672,0.83204 19.39453,20.62988 6.60059,-5.41016 -0.58008,-0.77734 c -1.8291,1.31445 -3.36328,1.97265 -4.60156,1.97558 -1.04297,-0.006 -2.12012,-0.41113 -3.22852,-1.21191 -0.49707,-0.3418 -1.36523,-1.16992 -2.60058,-2.4834 l -5.10938,-5.43457 10.34668,-9.72558 5.6582,6.01757 c 0.89356,0.97754 1.3711,1.82032 1.42872,2.52344 0.084,1.10938 -0.37891,2.2002 -1.38575,3.27344 -0.2832,0.31738 -0.67675,0.71289 -1.18554,1.19238 l 0.70019,0.74414 10.01367,-9.41308 -0.70019,-0.74512 c -1.29297,1.21289 -2.28711,1.92285 -2.98633,2.12305 -1.35742,0.3916 -2.69141,-0.0986 -4.00488,-1.46778 l -5.65625,-6.0166 8.81543,-8.28808 c 0.9707,-0.88868 1.67187,-1.46094 2.10547,-1.71583 0.42285,-0.24609 0.84863,-0.27929 1.27929,-0.10253 0.42969,0.17675 0.97168,0.61621 1.62793,1.31347 l 3.78321,4.02539 c 2.24511,2.36035 3.40332,4.61817 3.47558,6.77442 0.0508,1.51855 -0.46875,3.47168 -1.55664,5.8584 l 0.92383,0.41992 4.6748,-8.82715 -19.14355,-20.36133 -0.86328,0.81152 0.83008,0.88477 c 0.92089,0.95215 1.36523,1.89648 1.33691,2.83203 -0.0254,0.85742 -0.72363,1.94238 -2.0918,3.25293 l -5.1582,4.84961 m -9.39453,-6.1123 7.45801,7.93261 -13.61328,12.79883 6.15527,-20.73144 z"
       style="fill:#ffffff;fill-opacity:1;fill-rule:nonzero;stroke:none"
       id="path4090"
       inkscape:connector-curvature="0" /><path
       d="m 458.5,300.78711 -2.61914,-4.31543 c -0.99609,-1.67676 -1.50781,-2.97949 -1.5332,-3.90918 -0.0459,-1.56543 0.44531,-2.83105 1.47363,-3.7998 0.43066,-0.39161 1.09082,-0.91993 1.97559,-1.58692 l -0.60547,-0.88867 -7.52637,5.21289 16.06934,26.47559 8.0996,-4.27149 -0.50976,-0.94824 c -2.01465,1.00781 -3.54297,1.41797 -4.58301,1.23144 -1.00488,-0.16503 -1.88086,-0.5791 -2.62891,-1.24316 -0.53417,-0.49316 -1.17578,-1.35254 -1.91894,-2.57812 l -2.62012,-4.31641 24.83692,-15.0752 c 1.64453,-0.97753 2.90039,-1.37304 3.76464,-1.1875 0.78907,0.16407 1.57911,0.84766 2.3711,2.0459 l 0.6914,1.03223 0.87208,-0.53027 -8.42676,-13.88282 -0.87207,0.5293 0.5957,1.08984 c 0.69727,1.25586 0.93848,2.27149 0.72168,3.04688 -0.23438,0.85449 -1.16602,1.78516 -2.79102,2.79297 L 458.5,300.78711 z"
       style="fill:#ffffff;fill-opacity:1;fill-rule:nonzero;stroke:none"
       id="path4092"
       inkscape:connector-curvature="0" /><path
       d="m 475.79004,345.89941 c 0.68457,2.21387 1.79101,4.23926 3.32226,6.07813 1.53028,1.83789 3.32715,3.29492 5.39063,4.37109 2.38184,1.22754 5.01172,1.8877 7.88672,1.98242 2.35058,0.0625 4.70117,-0.26855 7.05566,-0.99707 5.3418,-1.64843 9.25977,-4.72753 11.75489,-9.23242 2.34472,-4.24902 2.78125,-8.7539 1.30957,-13.51758 -1.51563,-4.90429 -4.44825,-8.47656 -8.79493,-10.71386 -2.19238,-1.11524 -4.57617,-1.76074 -7.15234,-1.93653 -2.57617,-0.17675 -5.14648,0.13184 -7.71191,0.92383 -5.44532,1.68262 -9.39161,4.76856 -11.83399,9.25977 -2.32519,4.30078 -2.73633,8.89355 -1.22656,13.78222 m 1.97363,-1.07226 c -0.72461,-2.34375 -0.42871,-4.72363 0.88574,-7.13965 1.14063,-2.11523 3.1045,-4.01465 5.89747,-5.70117 1.88867,-1.1211 3.96875,-2.03125 6.23632,-2.73242 4.09961,-1.26563 7.90235,-1.58887 11.40821,-0.9668 2.12011,0.37988 3.94726,1.24219 5.48047,2.58887 1.26562,1.10254 2.16308,2.51172 2.69335,4.22461 0.54981,1.7832 0.57227,3.55371 0.0645,5.30957 -0.50781,1.75781 -1.50684,3.37207 -2.99512,4.84863 -2.5332,2.52539 -5.83203,4.41699 -9.89551,5.6709 -4.2041,1.29883 -7.99316,1.62793 -11.37109,0.98633 -2.08594,-0.39161 -3.90918,-1.24512 -5.47461,-2.56348 -1.38574,-1.18066 -2.36231,-2.68848 -2.92969,-4.52539 z"
       style="fill:#ffffff;fill-opacity:1;fill-rule:nonzero;stroke:none"
       id="path4094"
       inkscape:connector-curvature="0" /><path
       d="m 513.70996,364.87305 -25.79785,2.44531 c -1.90527,0.16309 -3.20703,-0.0283 -3.90625,-0.57129 -0.6377,-0.49414 -1.04883,-1.43359 -1.23633,-2.81934 l -0.17773,-1.2871 -1.01563,0.0967 1.43067,15.09668 c 0.36914,3.88575 0.85254,6.72657 1.44531,8.52051 1.22656,3.76953 3.24512,6.83301 6.05469,9.19434 3.6748,3.0918 8.25879,4.3789 13.75195,3.85644 3.84668,-0.36425 7.15723,-1.59277 9.93359,-3.6875 3.27637,-2.47461 5.34961,-5.94629 6.22071,-10.41211 0.37304,-1.90429 0.53711,-3.67871 0.49218,-5.31933 -0.04,-1.40235 -0.18164,-3.36817 -0.42089,-5.89942 l -1.41309,-14.90429 -1.01465,0.0976 0.0664,1.2959 c 0.0771,1.39649 -0.15039,2.39649 -0.68457,3.00098 -0.58399,0.66601 -1.82715,1.09668 -3.72852,1.2959 m -28.06641,8.61035 31.39747,-2.97656 c 0.77734,1.91992 1.24121,3.68261 1.39453,5.29101 0.37597,3.9668 -0.46192,7.42285 -2.51172,10.36621 -2.70313,3.87207 -6.87695,6.0752 -12.52149,6.61035 -4.65429,0.44239 -8.68164,-0.5791 -12.0791,-3.05957 -1.94531,-1.40429 -3.36035,-2.99414 -4.25097,-4.77246 -0.84864,-1.72851 -1.39063,-3.85254 -1.63086,-6.37597 -0.1543,-1.62793 -0.085,-3.32227 0.20214,-5.08301 z"
       style="fill:#ffffff;fill-opacity:1;fill-rule:nonzero;stroke:none"
       id="path4096"
       inkscape:connector-curvature="0" /><path
       d="m 502.85254,414.08691 12.0332,1.12696 c 1.31055,0.1416 2.20899,0.29004 2.68946,0.44726 0.46386,0.1543 0.77246,0.45117 0.92578,0.8916 0.15039,0.44141 0.18261,1.13868 0.0918,2.09375 l -0.63476,6.7754 c -0.28321,3.22802 -1.21387,5.5913 -2.79004,7.08984 -1.10938,1.04199 -2.92481,1.94678 -5.44336,2.70898 l 0.29492,0.96973 9.74121,-2.32959 2.72364,-29.06494 -1.01661,-0.0947 -0.17578,1.28613 c -0.18554,1.38575 -0.5957,2.32618 -1.2334,2.82032 -0.69629,0.54492 -1.99902,0.73633 -3.90625,0.57617 l -25.79882,-2.41797 c -1.90332,-0.19727 -3.14649,-0.62598 -3.73145,-1.29102 -0.53223,-0.60449 -0.76269,-1.60546 -0.68652,-3.00195 l 0.0664,-1.29492 -1.01562,-0.0967 -2.6709,28.48877 8.42187,1.37158 0.20215,-0.979 c -2.19726,-0.48389 -3.70703,-1.18994 -4.52734,-2.11768 -0.68555,-0.78711 -1.09473,-1.86133 -1.22656,-3.22363 -0.0723,-0.60059 -0.0264,-1.79883 0.14258,-3.59668 l 0.8164,-8.7041 14.1377,1.32617 -0.89258,9.50098 c -0.13965,1.32129 -0.45606,2.23535 -0.94727,2.74511 -0.77539,0.79786 -1.90039,1.17383 -3.37109,1.12891 -0.42383,-0.003 -0.9834,-0.0371 -1.67774,-0.10156 l -0.0947,1.01953 13.68359,1.28271 0.0947,-1.0205 c -1.76563,-0.16504 -2.96387,-0.44385 -3.59473,-0.83643 -1.17285,-0.75781 -1.67969,-2.08496 -1.52148,-3.97656 l 0.8916,-9.50196 z"
       style="fill:#ffffff;fill-opacity:1;fill-rule:nonzero;stroke:none"
       id="path4098"
       inkscape:connector-curvature="0" /><path
       d="m 509.08691,475.75244 -20.98437,-32.53906 22.47851,6.60107 c 1.82911,0.55616 2.96875,1.21729 3.41407,1.98145 0.41113,0.69385 0.4414,1.72851 0.0937,3.10303 l -0.30371,1.23339 0.97949,0.2876 3.69824,-12.5957 -0.97754,-0.28711 -0.41894,1.22852 c -0.44727,1.32568 -1.03028,2.17041 -1.74903,2.5332 -0.78906,0.40185 -2.10547,0.34082 -3.94531,-0.17969 l -25.68359,-7.54297 c -1.13086,-2.01855 -1.82032,-3.45752 -2.06641,-4.31592 -0.2334,-0.96923 -0.14258,-2.21826 0.26563,-3.74511 l -0.9795,-0.28711 -3.14648,10.71338 18.69433,28.68798 -19.32714,-5.67626 c -1.83008,-0.55713 -2.96778,-1.21631 -3.41602,-1.98096 -0.40918,-0.69531 -0.44434,-1.72022 -0.10156,-3.07617 l 0.3125,-1.26026 -0.98047,-0.2876 -3.69824,12.59571 0.97949,0.28711 0.41113,-1.20264 c 0.45117,-1.34424 1.03711,-2.19678 1.75586,-2.55908 0.79102,-0.40137 2.10449,-0.3418 3.94434,0.18017 l 30.50097,8.95655 0.25,-0.85352 z"
       style="fill:#ffffff;fill-opacity:1;fill-rule:nonzero;stroke:none"
       id="path4100"
       inkscape:connector-curvature="0" /><path
       d="m 503.09863,489.97363 0.49219,-0.9873 -11.41309,-5.69873 -0.50585,1.0122 c 2.23144,1.54541 3.80371,3.11084 4.71777,4.69874 0.82422,1.39746 1.27734,2.88867 1.36035,4.47265 0.083,1.58301 -0.20703,3.04151 -0.87402,4.37549 -0.75586,1.51318 -1.84766,2.59082 -3.2793,3.23389 -1.7168,0.7666 -3.40625,0.73535 -5.07031,-0.0942 -1.47852,-0.73828 -2.56934,-2.11572 -3.27051,-4.13135 -0.51758,-1.51318 -0.82617,-3.01465 -0.92578,-4.50439 l -0.29785,-5.08448 c -0.16407,-2.63427 -0.60157,-4.8457 -1.30957,-6.63916 -0.76563,-1.9248 -2.20996,-3.4165 -4.33106,-4.47656 -2.68262,-1.33838 -5.29687,-1.5332 -7.8457,-0.58643 -2.28516,0.87354 -4.07324,2.60157 -5.36328,5.18555 -0.60742,1.21631 -1.04102,2.61426 -1.29883,4.19092 -0.0586,0.2793 -0.20117,1.17529 -0.42676,2.68701 -0.0742,0.47559 -0.18555,0.86133 -0.33398,1.15723 -0.30371,0.60986 -0.94922,0.88281 -1.9375,0.82178 l -0.51758,1.03613 10.73437,5.35888 0.45704,-0.91308 c -2.20411,-2.10449 -3.66211,-3.74609 -4.37403,-4.9209 -1.53906,-2.53174 -1.66797,-5.0791 -0.39062,-7.63965 0.69726,-1.39599 1.64648,-2.38965 2.8457,-2.98047 1.46973,-0.72119 2.9209,-0.72558 4.35156,-0.0107 1.30078,0.64893 2.19043,1.771 2.66895,3.36475 0.48828,1.53564 0.76855,3.05127 0.84472,4.54736 l 0.28809,5.04053 c 0.16016,2.64551 0.61621,5.00781 1.36523,7.08642 0.89063,2.49756 2.52051,4.33789 4.89161,5.52051 2.86132,1.4292 5.67968,1.57129 8.44921,0.42627 2.49903,-1.0542 4.44336,-2.97168 5.83204,-5.75342 0.65039,-1.30029 1.05957,-2.49267 1.23339,-3.57715 l 0.51758,-3.25683 c 0.15723,-0.93018 0.35059,-1.62354 0.58008,-2.08447 0.37891,-0.7583 1.08984,-1.04981 2.13574,-0.87696 z"
       style="fill:#ffffff;fill-opacity:1;fill-rule:nonzero;stroke:none"
       id="path4102"
       inkscape:connector-curvature="0" /><path
       d="m 468.49121,513.64063 9.83984,7.01806 c 1.06446,0.78076 1.76465,1.36035 2.10157,1.73779 0.32519,0.3667 0.44238,0.77784 0.35254,1.23584 -0.0908,0.45704 -0.41407,1.07618 -0.97071,1.85645 l -3.95215,5.54102 c -1.86621,2.64843 -3.85839,4.2246 -5.9746,4.729 -1.48145,0.34424 -3.50586,0.21387 -6.06739,-0.3916 l -0.23144,0.98681 9.59375,2.87842 16.95312,-23.76562 -0.83203,-0.59278 -0.79883,1.02393 c -0.85547,1.10547 -1.68261,1.7124 -2.48144,1.81982 -0.87696,0.12061 -2.09961,-0.36816 -3.66797,-1.46289 l -21.0957,-15.04834 c -1.5459,-1.12646 -2.4043,-2.12207 -2.57715,-2.99121 -0.15723,-0.79053 0.14648,-1.77051 0.91406,-2.93994 l 0.70703,-1.08887 -0.83008,-0.59228 -16.61718,23.29443 6.59472,5.41455 0.66504,-0.74365 c -1.65625,-1.52197 -2.60644,-2.89111 -2.85058,-4.10547 -0.19825,-1.02441 -0.0117,-2.15918 0.55761,-3.40381 0.23926,-0.55615 0.88281,-1.56884 1.93067,-3.03808 l 5.07617,-7.11719 11.56055,8.24658 -5.54297,7.76953 c -0.78614,1.07032 -1.51758,1.70362 -2.19922,1.89698 -1.07031,0.30078 -2.23145,0.061 -3.48047,-0.7168 -0.36621,-0.21533 -0.83301,-0.5249 -1.40039,-0.93018 l -0.59473,0.8335 11.18945,7.98144 0.59375,-0.83349 c -1.44433,-1.03028 -2.33984,-1.87354 -2.68847,-2.53076 -0.63281,-1.24414 -0.4043,-2.64453 0.68164,-4.20215 l 5.54199,-7.76904 z"
       style="fill:#ffffff;fill-opacity:1;fill-rule:nonzero;stroke:none"
       id="path4104"
       inkscape:connector-curvature="0" /><path
       d="m 435.01172,487.27393 0,0.64453 -14.18652,5.8208 -0.42286,-0.0459 c -15.75,-1.71777 -24.43261,4.35596 -34.48632,11.38965 -11.35547,7.94336 -24.17969,16.91357 -49.71582,15.78515 -5.08008,16.07862 -20.11231,27.73584 -37.87012,27.73584 -18.30322,0 -33.7041,-12.38525 -38.30469,-29.22851 -19.69385,-0.69385 -30.49756,-8.02051 -40.13623,-14.55713 -8.91406,-6.0459 -16.61279,-11.26709 -29.84228,-11.26709 -2.77784,0 -5.88038,0.2832 -9.76563,0.89111 l -0.45068,0.0708 -14.23487,-5.65869 0,-0.64941 C 148.90674,462.86035 139.17041,432.5498 139.17041,400 c 0,-88.68164 72.14795,-160.8291 160.82959,-160.8291 88.68164,0 160.8291,72.14746 160.8291,160.8291 0,32.15234 -9.50097,62.11865 -25.81738,87.27393 M 165.5957,317.99512 C 150.95947,341.89551 142.51172,369.97949 142.51172,400 c 0,30.01563 8.45117,58.08887 23.08398,81.98633 l 0,-163.99121 m 266.0752,167.68359 0,-75.23535 c -2.26074,0.92871 -4.87305,1.75879 -7.89746,2.46582 -0.52246,0.12207 -1.01465,0.22949 -1.51856,0.34375 l 0,76.28857 c 2.92188,-1.19873 8.16504,-3.34961 9.41602,-3.86279 M 384,502.34521 c 9.78125,-6.84277 19.08105,-13.27294 34.91309,-12.09863 l 0,-76.2749 c -12.0752,2.44531 -19.07325,2.07617 -29.42774,-1.2207 0.26465,1.07519 0.4209,2.1914 0.4209,3.34765 0,7.40821 -5.76855,13.45069 -13.05371,13.9253 l -25.11035,35.22753 -42.32617,-5.04443 0,10.54981 c 16.53613,4.79931 28.62695,20.0498 28.62695,38.1333 0,2.97802 -0.33789,5.87549 -0.95996,8.66601 23.88281,0.89112 35.58887,-7.28662 46.91699,-15.21094 M 270.08154,347.30176 c -3.89306,0 -7.4165,-0.30274 -10.67675,-0.81543 l -7.25245,11.42578 45.91407,24.30762 0.26367,-0.085 0,-43.31446 c -9.08008,5.53907 -18.66455,8.48145 -28.24854,8.48145 m 28.24854,-12.41699 0,-12.48438 c -9.07862,7.43945 -18.91113,11.53613 -28.24854,11.53613 -0.91699,0 -1.80566,-0.0225 -2.67334,-0.0605 l -6.04394,9.52343 c 2.69873,0.36036 5.58887,0.56055 8.71728,0.56055 9.56787,0 19.17725,-3.14746 28.24854,-9.07519 m 11.08594,104.82861 32.75586,3.90332 19.80371,-27.78174 c 0.10449,-5.55566 3.44824,-10.31055 8.22461,-12.46777 l -21.59571,-15.98926 -39.18847,12.57227 0,39.76318 m -7.7461,-58.65088 50.65528,-16.25 34.77636,25.74805 c 13.47754,-6.71485 22.07324,-15.06641 31.81153,-18.39063 l 0,-46.80371 c -1.15235,-0.041 -2.42969,-0.0859 -2.42969,-0.0859 -15.12988,0 -24.69238,5.42188 -34.81543,11.16407 -10.28125,5.83007 -21.93164,12.43652 -38.08106,12.43652 -16.65625,0 -28.43945,-3.66504 -41.91699,-11.21875 l 0,43.40039 M 181.69385,490.87256 c 3.17334,-0.43701 5.89355,-0.66211 8.35303,-0.66211 14.25585,0 22.7373,5.75244 31.71728,11.84277 9.53809,6.46875 19.3877,13.11817 37.49707,13.93701 -0.4165,-2.30468 -0.64551,-4.6748 -0.64551,-7.10009 0,-18.74219 12.98731,-34.44092 30.44971,-38.61621 l 0,-12.41944 -32.37647,-22.93359 -18.71484,16.91162 c -0.64209,7.79639 -7.16162,13.92676 -15.12353,13.92676 -8.3877,0 -15.18702,-6.79883 -15.18702,-15.18701 0,-8.38721 6.79932,-15.18653 15.18702,-15.18653 0.91992,0 1.8164,0.0952 2.6914,0.25196 l 29.60205,-26.74903 33.92139,24.02783 0,-32.43603 -65.89355,-34.88477 16.37109,-25.79297 c -2.46973,-1.25976 -4.8374,-2.583 -7.18164,-3.89843 -9.04102,-5.07325 -17.58057,-9.86426 -30.92432,-9.86426 -7.14941,0 -13.6123,0.82715 -19.74316,2.45898 l 0,162.37354 m -1.31446,-165.50537 c 6.5459,-1.78809 13.44239,-2.66895 21.05762,-2.66895 14.2168,0 23.54151,5.23242 32.5586,10.29199 2.39599,1.34375 4.8125,2.7002 7.34619,3.97852 l 5.27197,-8.30664 c -0.24561,-0.23438 -0.50586,-0.43457 -0.7627,-0.64453 -1.56884,-0.79297 -3.12158,-1.63574 -4.69336,-2.50781 -5.53906,-1.77149 -11.92382,-0.68457 -16.02929,-0.68457 -10.71973,0 -20.33887,-5.58008 -23.14697,-12.1377 -0.1836,-0.002 -0.35889,-0.0127 -0.54444,-0.0127 -11.13232,0 -21.43213,1.8545 -30.73437,5.39649 l 9.67675,7.2959 M 168.93701,486.5874 c 1.27539,0.50733 6.53028,2.59619 9.41602,3.74268 l 0,-162.30762 -9.41602,-7.09863 0,165.66357 M 300,242.51172 c -55.94727,0 -105.16699,29.32812 -133.11084,73.41308 10.27637,-4.33886 21.80762,-6.55371 34.28369,-6.58496 -0.008,-0.15429 -0.0396,-0.30664 -0.0396,-0.46093 0,-11.79493 8.80811,-20.04688 22.78027,-20.04688 16.12403,0 31.68506,6.48438 57.02442,23.72852 L 269.498,330.58398 c 0.19677,0.002 0.38427,0.0117 0.58349,0.0117 9.72412,0 20.11914,-4.9248 29.51416,-13.74902 16.26758,10.57324 26.98535,15.32812 43.99121,15.32812 11.74219,0 20.53125,-4.98437 29.83789,-10.26171 11.0254,-6.25098 23.52149,-13.33789 43.0586,-13.33789 3.36133,0 7.94922,0.19043 12.65625,1.39355 C 400.64551,269.21973 353.38672,242.51172 300,242.51172 m 116.4834,69.4043 c -18.65625,0 -30.22363,6.55957 -41.41016,12.90429 -9.70117,5.5 -18.8623,10.69629 -31.48633,10.69629 -16.42871,0 -27.17871,-4.19238 -41.91699,-13.39355 l 0,11.69336 c 13.69531,7.90039 25.32031,11.72265 41.91699,11.72265 15.26856,0 26.51172,-6.37597 36.43067,-12.00097 10.52051,-5.96582 20.4541,-11.59864 36.46582,-11.59864 l 3.52051,0.12403 9.9873,-8.31641 c -4.91113,-1.56348 -9.9375,-1.83105 -13.50781,-1.83105 m 5.77148,12.62207 0,46.69336 c 1.66309,-0.34668 3.37403,-0.542 5.16309,-0.542 1.49023,0 2.90723,0.15039 4.25293,0.41993 l 0,-54.41407 -9.41602,7.84278 m 12.75684,47.56347 c 6.58203,2.68848 10.63086,9.09082 10.63086,18.02735 0,6.88574 -1.62403,13.8291 -10.63086,18.73339 l 0,72.11622 C 449.26758,457.2998 457.48828,429.5957 457.48828,400 c 0,-29.60156 -8.21484,-57.31836 -22.47656,-81.00098 l 0,53.10254 z"
       style="fill:#ffffff;fill-opacity:1;fill-rule:nonzero;stroke:none"
       id="path4106"
       inkscape:connector-curvature="0" /></g></svg>